<svg xmlns="http://www.w3.org/2000/svg" width="35" height="35"><path d="M20.87 28.68L26 24.24a13.66 13.66 0 0 0 1.39-19.22A13.67 13.67 0 0 0 8.16 3.64a13.66 13.66 0 0 0-1.39 19.22l8.95 10.33c.8.93 1.64 1.92 2.94.86l.08-.07c1.24-1.13.37-2.1-.43-3.03L9.36 20.62a10.24 10.24 0 0 1 1.04-14.4 10.24 10.24 0 0 1 14.4 1.04 10.24 10.24 0 0 1-1.04 14.4l-2.54 2.19-6.67-7.72a3.39 3.39 0 0 1 .34-4.73 3.4 3.4 0 0 1 4.73.35 3.4 3.4 0 0 1 .11 4.24c-.45.65-.42 1.54.11 2.16 1.13 1.3 2.37.4 3.03-.7a6.82 6.82 0 0 0-.66-7.94 6.82 6.82 0 0 0-9.56-.7 6.81 6.81 0 0 0-.7 9.56l6.68 7.72z" fill="#0070ac" fill-rule="evenodd"/></svg>