<svg viewBox="0 0 90 90" xmlns="http://www.w3.org/2000/svg"><path d="M7.32 49.6c.5 0 .94.19 1.3.55.36.37.54.8.54 1.32s-.18.95-.54 1.31a1.7 1.7 0 0 1-1.28.54c-.51 0-.95-.18-1.3-.55a1.83 1.83 0 0 1-.55-1.34 1.8 1.8 0 0 1 1.83-1.82zM5.88 65.75V54.3h2.88v11.44zM14.2 54.3v1.26A4.86 4.86 0 0 1 17.82 54a5 5 0 0 1 3.8 1.7 6.14 6.14 0 0 1 1.57 4.34c0 1.7-.54 3.13-1.62 4.27a5.1 5.1 0 0 1-5.67 1.37 5.66 5.66 0 0 1-1.7-1.15v5.39h-2.85V54.3zm12.5-4.7c.5 0 .93.18 1.3.54.35.37.53.8.53 1.32s-.18.95-.54 1.31c-.35.37-.78.54-1.28.54-.51 0-.95-.18-1.3-.55a1.83 1.83 0 0 1-.55-1.34c0-.5.18-.93.54-1.3a1.8 1.8 0 0 1 1.3-.53zm-1.45 16.14V54.3h2.88v11.44zm5.47-11.44h2.86v1.17a6.78 6.78 0 0 1 1.78-1.14 4.26 4.26 0 0 1 1.62-.32c1.14 0 2.1.4 2.9 1.19.66.67.99 1.66.99 2.98v7.56h-2.84v-5.01c0-1.37-.06-2.28-.18-2.73a1.87 1.87 0 0 0-.65-1 1.8 1.8 0 0 0-1.12-.35 2.1 2.1 0 0 0-1.5.58c-.42.39-.7.93-.87 1.61-.08.36-.13 1.13-.13 2.33v4.59h-2.86zm11.56 0h1.02c0-1.5.03-2.38.07-2.66.08-.63.34-1.13.8-1.5a3 3 0 0 1 1.91-.55c.6 0 1.27.14 2.02.41v2.2a3.7 3.7 0 0 0-1.02-.19c-.33 0-.58.07-.73.21-.11.1-.17.32-.17.65l-.01 1.43h1.82v2.44h-1.82v9H43.3v-9h-1.02zm12.76-.3a6.1 6.1 0 0 1 5.27 3.01 6.02 6.02 0 0 1-9.45 7.27 5.8 5.8 0 0 1-1.75-4.25 5.8 5.8 0 0 1 1.97-4.47 5.74 5.74 0 0 1 3.96-1.55zm9.98 8.74c.45 0 .84.16 1.17.48.32.32.48.7.48 1.16 0 .46-.16.84-.48 1.17-.33.32-.72.48-1.17.48a1.6 1.6 0 0 1-1.17-.48 1.59 1.59 0 0 1-.48-1.17c0-.46.16-.84.48-1.16a1.6 1.6 0 0 1 1.17-.48zM70.6 49.6c.5 0 .94.19 1.3.55.36.37.54.8.54 1.32s-.18.95-.54 1.31c-.35.36-.78.54-1.28.54-.51 0-.95-.18-1.3-.55a1.83 1.83 0 0 1-.55-1.34c0-.5.18-.93.54-1.3a1.8 1.8 0 0 1 1.3-.53zm-1.44 16.15V54.3h2.88v11.44zM80 54.02a6.1 6.1 0 0 1 5.26 3 6.02 6.02 0 0 1-9.45 7.27 5.8 5.8 0 0 1-1.74-4.25 5.8 5.8 0 0 1 1.97-4.47A5.74 5.74 0 0 1 80 54.02zm-62.8 2.65a3 3 0 0 0-2.24.92c-.6.62-.9 1.42-.9 2.42 0 1.02.3 1.84.9 2.46.6.63 1.35.94 2.25.94a2.9 2.9 0 0 0 2.21-.95c.6-.64.9-1.45.9-2.44 0-.98-.3-1.79-.88-2.41a2.92 2.92 0 0 0-2.23-.94zm37.87.05c-.89 0-1.63.31-2.22.93a3.3 3.3 0 0 0-.89 2.38c0 1 .3 1.8.88 2.42.59.61 1.33.92 2.22.92.9 0 1.65-.31 2.24-.93.6-.63.9-1.43.9-2.41 0-.98-.3-1.78-.88-2.4a2.98 2.98 0 0 0-2.25-.91zm24.97 0c-.9 0-1.63.31-2.23.93a3.3 3.3 0 0 0-.88 2.38c0 1 .29 1.8.88 2.42.58.61 1.32.92 2.22.92s1.64-.31 2.24-.93c.6-.63.89-1.43.89-2.41 0-.98-.3-1.78-.88-2.4a2.98 2.98 0 0 0-2.24-.91zM40.41 44.16l5.13-4.44a13.66 13.66 0 0 0 1.38-19.22 13.67 13.67 0 0 0-19.22-1.38 13.66 13.66 0 0 0-1.39 19.22l8.95 10.33c.8.93 1.64 1.92 2.94.86l.07-.07c1.25-1.13.38-2.1-.42-3.03L28.9 36.1a10.24 10.24 0 0 1 1.04-14.4 10.25 10.25 0 0 1 14.4 1.05 10.24 10.24 0 0 1-1.04 14.39l-2.54 2.19-6.68-7.72a3.39 3.39 0 0 1 .34-4.72 3.4 3.4 0 0 1 4.73.34 3.4 3.4 0 0 1 .12 4.24c-.45.65-.42 1.54.11 2.16 1.13 1.3 2.37.4 3.03-.7a6.82 6.82 0 0 0-.67-7.94 6.82 6.82 0 0 0-9.56-.7 6.81 6.81 0 0 0-.69 9.57l6.68 7.71z" fill="#046197"/></svg>