<?xml version="1.0" encoding="UTF-8" standalone="no"?>
<svg
   xmlns:dc="http://purl.org/dc/elements/1.1/"
   xmlns:cc="http://creativecommons.org/ns#"
   xmlns:rdf="http://www.w3.org/1999/02/22-rdf-syntax-ns#"
   xmlns:svg="http://www.w3.org/2000/svg"
   xmlns="http://www.w3.org/2000/svg"
   width="90"
   height="90"
   viewBox="0 0 90 90">
    <g
       id="Landing-Page-A"
       style="stroke:none;">
      <g id="Logo"
         transform="translate(-135,15)">
        <path id="ipinfo.io"
           d="m 142.32279,34.604992 c 0.5023,0 0.93638,0.18288 1.29881,0.545215 0.35886,0.365909 0.53821,0.807025 0.53821,1.323646 0,0.512899 -0.17578,0.95059 -0.53463,1.309201 -0.35871,0.362335 -0.78564,0.54179 -1.28079,0.54179 -0.51318,0 -0.95084,-0.183029 -1.30969,-0.552512 -0.36243,-0.365909 -0.54193,-0.814323 -0.54193,-1.337944 0,-0.50575 0.1795,-0.936292 0.53478,-1.294904 0.35885,-0.355186 0.78921,-0.534492 1.29524,-0.534492 z M 140.88037,50.74684 V 39.311175 h 2.88126 V 50.74684 Z m 8.32425,-11.435665 v 1.262737 c 0.52018,-0.516622 1.07998,-0.90755 1.68284,-1.165786 0.60271,-0.258386 1.24861,-0.391078 1.93385,-0.391078 1.49276,0 2.76283,0.566809 3.80691,1.69313 1.04409,1.129895 1.56442,2.575512 1.56442,4.340424 0,1.703852 -0.53821,3.127874 -1.61819,4.272215 -1.07999,1.144341 -2.35735,1.718299 -3.83567,1.718299 -0.66021,0 -1.27364,-0.118396 -1.8406,-0.351613 -0.56695,-0.236791 -1.13018,-0.616997 -1.69356,-1.151489 v 5.391388 h -2.84894 V 39.311175 Z m 12.49001,-4.706183 c 0.5023,0 0.93638,0.18288 1.29881,0.545215 0.35886,0.365909 0.53821,0.807025 0.53821,1.323646 0,0.512899 -0.17578,0.95059 -0.53463,1.309201 -0.35885,0.362335 -0.78578,0.54179 -1.28094,0.54179 -0.51303,0 -0.95084,-0.183029 -1.30969,-0.552512 -0.36228,-0.365909 -0.54178,-0.814323 -0.54178,-1.337944 0,-0.50575 0.1795,-0.936292 0.53463,-1.294904 0.35885,-0.355186 0.78936,-0.534492 1.29539,-0.534492 z M 160.25221,50.74684 V 39.311175 h 2.88126 V 50.74684 Z m 5.47531,-11.435665 h 2.85966 v 1.16951 c 0.65306,-0.54879 1.24146,-0.929144 1.77252,-1.140767 0.52748,-0.215197 1.06911,-0.32287 1.62177,-0.32287 1.13734,0 2.09905,0.398226 2.89198,1.190955 0.66736,0.670758 0.99746,1.664387 0.99746,2.98446 v 7.554377 h -2.83821 v -5.011183 c 0,-1.366686 -0.0609,-2.274087 -0.18292,-2.7225 -0.122,-0.448414 -0.33726,-0.789155 -0.64233,-1.025946 -0.30493,-0.233216 -0.67809,-0.351612 -1.12662,-0.351612 -0.58483,0 -1.08356,0.193752 -1.49976,0.584829 -0.41621,0.387354 -0.70684,0.925421 -0.86831,1.610477 -0.0825,0.35876 -0.12558,1.133618 -0.12558,2.324572 v 4.591363 h -2.85966 z m 11.55348,0 h 1.02249 c 0.007,-1.495804 0.0288,-2.385334 0.0718,-2.658016 0.0789,-0.631293 0.34098,-1.129895 0.79293,-1.495804 0.45211,-0.369483 1.09444,-0.552363 1.9197,-0.552363 0.59556,0 1.27006,0.136266 2.01637,0.408799 v 2.188306 c -0.41248,-0.122118 -0.74988,-0.179455 -1.01891,-0.179455 -0.33368,0 -0.58126,0.06821 -0.73558,0.208049 -0.11128,0.107673 -0.16863,0.32287 -0.16863,0.652888 l -0.0107,1.427596 h 1.819 v 2.439245 h -1.819 v 8.99642 h -2.86696 v -8.99642 h -1.02248 z m 12.76262,-0.294127 c 1.07999,0 2.09532,0.272682 3.04616,0.810749 0.94726,0.538066 1.68999,1.273459 2.22105,2.195305 0.53463,0.925421 0.80008,1.922624 0.80008,2.995183 0,1.079707 -0.26903,2.087633 -0.80381,3.027499 -0.53805,0.939867 -1.26649,1.671685 -2.19215,2.202454 -0.92581,0.527344 -1.94472,0.792878 -3.06061,0.792878 -1.63964,0 -3.03901,-0.584829 -4.19794,-1.750615 -1.15894,-1.165787 -1.7402,-2.58266 -1.7402,-4.250622 0,-1.786506 0.65664,-3.275013 1.96618,-4.465967 1.14821,-1.036668 2.46862,-1.556864 3.96124,-1.556864 z m 9.97833,8.734609 c 0.45553,0 0.84314,0.157861 1.16609,0.477156 0.32281,0.319147 0.48428,0.706501 0.48428,1.162063 0,0.455711 -0.16147,0.843065 -0.48428,1.165935 -0.32295,0.32287 -0.71055,0.484305 -1.16609,0.484305 -0.45568,0 -0.84685,-0.161435 -1.16623,-0.484305 -0.32281,-0.32287 -0.48428,-0.710224 -0.48428,-1.165935 0,-0.455562 0.16147,-0.842916 0.48428,-1.162063 0.31938,-0.319295 0.71055,-0.477156 1.16623,-0.477156 z m 5.58287,-13.146665 c 0.5023,0 0.93653,0.18288 1.29896,0.545215 0.35871,0.365909 0.53821,0.807025 0.53821,1.323646 0,0.512899 -0.17593,0.95059 -0.53463,1.309201 -0.35886,0.362335 -0.78579,0.54179 -1.28094,0.54179 -0.51318,0 -0.95084,-0.183029 -1.30969,-0.552512 -0.36243,-0.365909 -0.54178,-0.814323 -0.54178,-1.337944 0,-0.50575 0.17935,-0.936292 0.53463,-1.294904 0.35885,-0.355186 0.78936,-0.534492 1.29524,-0.534492 z M 204.1624,50.74684 V 39.311175 h 2.88126 V 50.74684 Z m 10.84665,-11.729792 c 1.07998,0 2.09547,0.272682 3.0463,0.810749 0.94712,0.538066 1.68985,1.273459 2.2209,2.195305 0.53464,0.925421 0.80024,1.922624 0.80024,2.995183 0,1.079707 -0.26918,2.087633 -0.80381,3.027499 -0.53821,0.939867 -1.26664,1.671685 -2.1923,2.202454 -0.92566,0.527344 -1.94457,0.792878 -3.06061,0.792878 -1.63964,0 -3.03901,-0.584829 -4.19795,-1.750615 -1.15893,-1.165787 -1.74019,-2.58266 -1.74019,-4.250622 0,-1.786506 0.65663,-3.275013 1.96632,-4.465967 1.14806,-1.036668 2.46848,-1.556864 3.9611,-1.556864 z m -62.78688,2.650868 c -0.90421,0 -1.65409,0.308573 -2.24965,0.925421 -0.5957,0.613422 -0.89348,1.420597 -0.89348,2.414225 0,1.018797 0.29778,1.840119 0.89348,2.464265 0.59556,0.627719 1.34544,0.943441 2.24965,0.943441 0.87546,0 1.61462,-0.319296 2.21375,-0.957738 0.59928,-0.638591 0.89706,-1.449191 0.89706,-2.439245 0,-0.979332 -0.2942,-1.782783 -0.88276,-2.410503 -0.58825,-0.627719 -1.33099,-0.939866 -2.22805,-0.939866 z m 37.8645,0.05019 c -0.88991,0 -1.6325,0.312147 -2.22463,0.932718 -0.59198,0.620571 -0.88618,1.413299 -0.88618,2.378334 0,0.997203 0.29063,1.800654 0.87903,2.417651 0.58484,0.616997 1.32399,0.925421 2.22105,0.925421 0.89691,0 1.64322,-0.311998 2.23893,-0.936143 0.59555,-0.624295 0.89333,-1.424172 0.89333,-2.406929 0,-0.979331 -0.29063,-1.775783 -0.87546,-2.389206 -0.5884,-0.613274 -1.33471,-0.921846 -2.24607,-0.921846 z m 24.96543,0 c -0.88976,0 -1.6325,0.312147 -2.22463,0.932718 -0.59198,0.620571 -0.88618,1.413299 -0.88618,2.378334 0,0.997203 0.29063,1.800654 0.87903,2.417651 0.58483,0.616997 1.32399,0.925421 2.22105,0.925421 0.89706,0 1.64322,-0.311998 2.23893,-0.936143 0.59555,-0.624295 0.89333,-1.424172 0.89333,-2.406929 0,-0.979331 -0.29063,-1.775783 -0.87546,-2.389206 -0.58841,-0.613274 -1.33471,-0.921846 -2.24607,-0.921846 z"
            />
        <path id="icon"
           d="m 175.41254,29.158948 5.12599,-4.434544 c 5.66882,-4.904106 6.29342,-13.553082 1.3882,-19.2204286 -4.90538,-5.66734698 -13.5566,-6.29178998 -19.22541,-1.387685 -5.66882,4.903957 -6.29327,13.5530816 -1.38804,19.2204286 l 8.94571,10.335107 c 0.79905,0.923336 1.63965,1.923071 2.94055,0.857511 l 0.0761,-0.06582 c 1.24161,-1.134065 0.37271,-2.109227 -0.42649,-3.032414 l -8.94556,-10.335261 c -3.66824,-4.237963 -3.19975,-10.722759 1.03917,-14.3898916 4.23906,-3.667133 10.72539,-3.198912 14.39362,1.039051 3.66793,4.2378136 3.19974,10.7224606 -1.03932,14.3897426 l -2.53581,2.193668 -6.67715,-7.714323 c -1.1935,-1.379047 -1.03783,-3.535632 0.34157,-4.728969 1.37926,-1.193189 3.53655,-1.037562 4.7302,0.341485 1.02219,1.181125 1.05466,2.932634 0.17622,4.16082 -0.0203,0.0283 -0.0411,0.05629 -0.0623,0.08399 -0.44719,0.64425 -0.42187,1.53795 0.11351,2.156436 1.12542,1.300414 2.36748,0.405821 3.02903,-0.695034 1.46982,-2.445649 1.29047,-5.68626 -0.66632,-7.9469437 -2.43078,-2.8085749 -6.75267,-3.1205729 -9.56183,-0.6902639 -2.80915,2.4301606 -3.12123,6.7507766 -0.69029,9.5592076 l 6.67715,7.714471 z"
            />
      </g>
    </g>
</svg>